<?xml version="1.0" encoding="utf-8"?>
<!-- Generator: Adobe Illustrator 16.0.0, SVG Export Plug-In . SVG Version: 6.00 Build 0)  -->
<!DOCTYPE svg PUBLIC "-//W3C//DTD SVG 1.1//EN" "http://www.w3.org/Graphics/SVG/1.1/DTD/svg11.dtd">
<svg version="1.1" id="Layer_1" xmlns="http://www.w3.org/2000/svg" xmlns:xlink="http://www.w3.org/1999/xlink" x="0px" y="0px"
	 width="23px" height="35px" viewBox="0 0 23 35" enable-background="new 0 0 23 35" xml:space="preserve">
<g>
	<path fill="none" stroke="#FFFFFF" stroke-width="1.7143" stroke-linecap="round" d="M20.307,26.927
		c-1.047-0.337-2.441-0.139-3.723,0.629c-1.989,1.191-2.949,3.308-2.146,4.727c0.807,1.417,3.07,1.603,5.06,0.409
		c1.491-0.894,2.261-2.307,2.287-3.556c0.005-0.336,0.002-15.261,0-20.327c0-0.916-0.646-2-1.437-2.42l-10.146-5.37
		c-0.793-0.419-1.436-0.017-1.436,0.9c0.002,5.065,0.006,19.989,0,20.325c-0.024,1.25-0.796,2.664-2.288,3.558
		c-1.989,1.191-4.252,1.009-5.058-0.409c-0.804-1.419,0.157-3.536,2.146-4.728c1.281-0.767,2.676-0.965,3.722-0.628"/>
	<line fill="none" stroke="#FFFFFF" stroke-width="1.7143" stroke-linecap="round" x1="19.825" y1="10.384" x2="10.677" y2="5.5"/>
</g>
</svg>
