<?xml version="1.0" encoding="utf-8"?>
<!-- Generator: Adobe Illustrator 16.0.0, SVG Export Plug-In . SVG Version: 6.00 Build 0)  -->
<!DOCTYPE svg PUBLIC "-//W3C//DTD SVG 1.1//EN" "http://www.w3.org/Graphics/SVG/1.1/DTD/svg11.dtd">
<svg version="1.1" id="Layer_1" xmlns="http://www.w3.org/2000/svg" xmlns:xlink="http://www.w3.org/1999/xlink" x="0px" y="0px"
	 width="32.423px" height="35px" viewBox="0 0 32.423 35" enable-background="new 0 0 32.423 35" xml:space="preserve">
<path fill="none" stroke="#FFFFFF" stroke-width="2" d="M27.872,10.79V4.688c0-1.005-0.814-1.817-1.818-1.817h-2.422
	c-1.005,0-1.818,0.596-1.818,1.329c0,0.734-0.529,0.712-1.181-0.05l-3.063-3.577c-0.652-0.764-1.71-0.764-2.362,0l-7.43,8.674
	l-7.428,8.674c-0.65,0.761-0.365,1.378,0.638,1.378h2.098c1.002,0,1.818,0.814,1.818,1.816v12.068C4.902,34.188,5.715,35,6.719,35
	h1.521c1.004,0,1.818-0.812,1.818-1.816v-6.371c0-1.003,0.814-1.817,1.817-1.817h4.754c1.005,0,1.818,0.814,1.818,1.817v6.371
	c0,1.004,0.813,1.816,1.816,1.816h5.789c1.004,0,1.818-0.812,1.818-1.816V21.115c0-1.002,0.814-1.816,1.816-1.816h2.098
	c1.004,0,1.288-0.617,0.637-1.378l-3.371-3.936C28.401,13.223,27.872,11.792,27.872,10.79z"/>
</svg>
