<?xml version="1.0" encoding="utf-8"?>
<!-- Generator: Adobe Illustrator 16.0.0, SVG Export Plug-In . SVG Version: 6.00 Build 0)  -->
<!DOCTYPE svg PUBLIC "-//W3C//DTD SVG 1.1//EN" "http://www.w3.org/Graphics/SVG/1.1/DTD/svg11.dtd">
<svg version="1.1" id="Layer_1" xmlns="http://www.w3.org/2000/svg" xmlns:xlink="http://www.w3.org/1999/xlink" x="0px" y="0px"
	 width="26px" height="35px" viewBox="0 0 26 35" enable-background="new 0 0 26 35" xml:space="preserve">
<g>
	<path fill="none" stroke="#FFFFFF" stroke-width="1.7143" stroke-linecap="round" d="M10.238,19.453
		c2.9,4.854,7.156,7.447,7.97,6.95c0.814-0.494,1.116-0.721,1.241-0.754c0.12-0.035,0.709-0.427,1.154,0.316
		c0.445,0.745,2.202,3.686,2.752,4.606c0.55,0.923-0.41,1.491-0.41,1.491s-0.057,0.034-2.479,1.511
		c-3.621,2.204-8.837-3.366-14.025-11.882C1.253,13.178-0.987,5.939,2.631,3.735C5.055,2.26,5.109,2.226,5.109,2.226
		s0.951-0.595,1.5,0.327c0.552,0.922,2.308,3.861,2.753,4.605C9.807,7.903,9.191,8.245,9.102,8.34
		C9.015,8.435,8.679,8.599,7.863,9.095S7.337,14.6,10.238,19.453z"/>
	<path fill="none" stroke="#FFFFFF" stroke-width="1.7143" stroke-linecap="round" d="M24.979,30.299
		c0.407-2.78-1.744-5.217-3.628-5.954"/>
	<path fill="none" stroke="#FFFFFF" stroke-width="1.7143" stroke-linecap="round" d="M10.764,6.972
		c0.405-2.78-1.742-5.219-3.628-5.955"/>
</g>
</svg>
