<?xml version="1.0" encoding="utf-8"?>
<!-- Generator: Adobe Illustrator 16.0.0, SVG Export Plug-In . SVG Version: 6.00 Build 0)  -->
<!DOCTYPE svg PUBLIC "-//W3C//DTD SVG 1.1//EN" "http://www.w3.org/Graphics/SVG/1.1/DTD/svg11.dtd">
<svg version="1.1" id="Layer_1" xmlns="http://www.w3.org/2000/svg" xmlns:xlink="http://www.w3.org/1999/xlink" x="0px" y="0px"
	 width="35px" height="35px" viewBox="0 0 35 35" enable-background="new 0 0 35 35" xml:space="preserve">
<g>
	<path fill="none" stroke="#FFFFFF" stroke-width="1.7143" stroke-linecap="round" d="M12.75,28.554l6.049-3.429
		c0.578-0.329,0.578-0.858,0-1.188l-6.049-3.427c-0.579-0.327-1.047-0.061-1.047,0.595v6.854
		C11.703,28.613,12.172,28.879,12.75,28.554z"/>
	<ellipse fill="none" stroke="#FFFFFF" stroke-width="1.7143" stroke-linecap="round" cx="4.997" cy="10.315" rx="3.18" ry="3.12"/>
	
		<ellipse fill="none" stroke="#FFFFFF" stroke-width="1.7143" stroke-linecap="round" cx="18.657" cy="7.225" rx="6.496" ry="6.373"/>
	<path fill="none" stroke="#FFFFFF" stroke-width="1.7143" stroke-linecap="round" d="M32.259,17.541l-4.346,1.812
		c-0.861,0.361-1.561-0.092-1.561-1.01v-1.467c0-0.92-0.76-1.663-1.696-1.663H2.951c-0.937,0-1.696,0.743-1.696,1.663v15.313
		c0,0.92,0.759,1.664,1.696,1.664h21.705c0.937,0,1.696-0.744,1.696-1.664v-1.467c0-0.919,0.699-1.373,1.561-1.012l4.346,1.812
		c0.861,0.361,1.56-0.094,1.56-1.011V18.554C33.818,17.634,33.12,17.181,32.259,17.541z"/>
</g>
</svg>
