<?xml version="1.0" encoding="utf-8"?>
<!-- Generator: Adobe Illustrator 16.0.0, SVG Export Plug-In . SVG Version: 6.00 Build 0)  -->
<!DOCTYPE svg PUBLIC "-//W3C//DTD SVG 1.1//EN" "http://www.w3.org/Graphics/SVG/1.1/DTD/svg11.dtd">
<svg version="1.1" id="Layer_1" xmlns="http://www.w3.org/2000/svg" xmlns:xlink="http://www.w3.org/1999/xlink" x="0px" y="0px"
	 width="21px" height="52px" viewBox="0 0 21 52" enable-background="new 0 0 21 52" xml:space="preserve">
<g>
	<path fill="none" stroke="#A7A9AC" stroke-width="1.74" stroke-linecap="round" stroke-linejoin="round" d="M10.437,1.231
		c-1.988,0-3.604,1.747-3.604,3.895c0,2.148,1.617,3.896,3.604,3.896c1.989,0,3.604-1.748,3.604-3.896
		C14.041,2.979,12.426,1.231,10.437,1.231z"/>
	<path fill="none" stroke="#A7A9AC" stroke-width="1.74" stroke-linecap="round" stroke-linejoin="round" d="M12.006,11.786h-3.14
		c-4.345,0-7.868,3.719-7.868,8.306v9.294c0,1.376,1.052,2.49,2.351,2.49c1.298,0,2.35,1.116,2.35,2.493v13.972
		c0,1.378,1.056,2.492,2.361,2.492h4.756c1.302,0,2.36-1.114,2.36-2.492V34.37c0-1.377,1.05-2.493,2.35-2.493
		c1.297,0,2.35-1.114,2.35-2.49v-9.294C19.875,15.504,16.353,11.786,12.006,11.786z"/>
</g>
</svg>
