<?xml version="1.0" encoding="utf-8"?>
<!-- Generator: Adobe Illustrator 16.0.0, SVG Export Plug-In . SVG Version: 6.00 Build 0)  -->
<!DOCTYPE svg PUBLIC "-//W3C//DTD SVG 1.1//EN" "http://www.w3.org/Graphics/SVG/1.1/DTD/svg11.dtd">
<svg version="1.1" id="Layer_1" xmlns="http://www.w3.org/2000/svg" xmlns:xlink="http://www.w3.org/1999/xlink" x="0px" y="0px"
	 width="35px" height="35px" viewBox="0 0 35 35" enable-background="new 0 0 35 35" xml:space="preserve">
<path fill="none" stroke="#FFFFFF" stroke-width="1.7143" stroke-linecap="round" d="M33.812,29.045L28.28,17.809
	c1.121-1.507,1.648-2.794,1.222-3.23c-0.356-0.361-1.295-0.049-2.455,0.727l-1.075-2.186c4.684-5.291,6.599-8.917,5.622-9.91
	c-0.977-0.996-4.538,0.954-9.734,5.723l-2.146-1.094c0.762-1.181,1.067-2.136,0.712-2.498c-0.428-0.435-1.691,0.099-3.171,1.243
	L6.219,0.951C5.854,0.766,5.325,0.853,5.037,1.146L2.921,3.299C2.634,3.592,2.664,4.032,2.99,4.282l9.753,7.444
	c-0.396,0.791-0.505,1.401-0.237,1.674c0.299,0.306,1.011,0.135,1.919-0.391l1.896,1.448c-3.722,3.976-7.526,8.514-9.91,11.882
	l-3.188-1.925c-0.351-0.212-0.868-0.146-1.156,0.149l-0.327,0.331c-0.289,0.294-0.28,0.761,0.02,1.041l3.044,2.871
	c-0.716,1.245-1.011,2.113-0.72,2.412c0.292,0.298,1.144-0.004,2.369-0.732l2.821,3.1c0.275,0.303,0.734,0.312,1.021,0.019
	l0.327-0.332c0.287-0.294,0.354-0.819,0.145-1.177l-1.89-3.248c3.308-2.427,7.766-6.299,11.669-10.089l1.421,1.93
	c-0.516,0.926-0.683,1.65-0.385,1.955c0.27,0.274,0.87,0.162,1.646-0.241l7.312,9.931c0.244,0.331,0.677,0.362,0.964,0.067
	l2.115-2.152C33.908,29.953,33.995,29.416,33.812,29.045z"/>
</svg>
