<?xml version="1.0" encoding="utf-8"?>
<!-- Generator: Adobe Illustrator 16.0.0, SVG Export Plug-In . SVG Version: 6.00 Build 0)  -->
<!DOCTYPE svg PUBLIC "-//W3C//DTD SVG 1.1//EN" "http://www.w3.org/Graphics/SVG/1.1/DTD/svg11.dtd">
<svg version="1.1" id="Layer_1" xmlns="http://www.w3.org/2000/svg" xmlns:xlink="http://www.w3.org/1999/xlink" x="0px" y="0px"
	 width="31px" height="31px" viewBox="0 0 31 31" enable-background="new 0 0 31 31" xml:space="preserve">
<g>
	<g>
		
			<ellipse fill="none" stroke="#FFFFFF" stroke-width="1.7143" stroke-linecap="round" cx="15.511" cy="15.575" rx="14.397" ry="14.387"/>
	</g>
	<path fill="none" stroke="#FFFFFF" stroke-width="1.7143" stroke-linecap="round" d="M6.278,4.7c0,0-2.019,3.916-2.019,5.564
		s1.42,4.671,2.093,5.288c0.671,0.62,5.753,4.192,6.202,4.192c0.447,0-0.374,1.442-0.374,2.403c0,0.963,1.419,2.817,1.941,3.093
		c0.524,0.273,0.824,1.785,0.225,2.885c-0.598,1.1-0.149,1.785-0.149,1.785h1.569c0,0,4.707-2.609,4.932-3.434
		c0.225-0.824,5.155-2.817,4.482-4.466c-0.671-1.648-2.091-0.41-3.51-0.755c-1.421-0.341-0.897-1.718-2.317-1.854
		c-1.421-0.139-1.944-1.1-3.661-1.03c-1.72,0.067-2.393,1.167-3.139,0.755c-0.748-0.412-2.018-2.267-1.943-3.369
		c0.075-1.097-2.764,1.377-2.764-0.41c0-1.786,2.39-3.572,3.287-2.886c0.897,0.688,1.868,2.336,1.719,1.512
		c-0.15-0.824,3.587-5.221,5.529-5.427c1.941-0.206-1.494-2.129-2.54-2.611c-1.047-0.48,0.298-1.647,0.896-1.441
		s3.065-0.415,2.393-1.1c-0.674-0.688-4.26-2.404-4.26-2.404"/>
	<path fill="none" stroke="#FFFFFF" stroke-width="1.7143" stroke-linecap="round" d="M19.278,1.883
		c0.599,0.688,3.438,3.093,3.587,3.709c0.149,0.62,2.017,1.237,2.316,1.581c0.301,0.343,1.196,8.037,1.569,8.654
		c0.374,0.619,1.792,1.994,1.867,2.2s1.271-3.023,1.271-3.367"/>
</g>
</svg>
