<?xml version="1.0" encoding="utf-8"?>
<!-- Generator: Adobe Illustrator 16.0.0, SVG Export Plug-In . SVG Version: 6.00 Build 0)  -->
<!DOCTYPE svg PUBLIC "-//W3C//DTD SVG 1.1//EN" "http://www.w3.org/Graphics/SVG/1.1/DTD/svg11.dtd">
<svg version="1.1" id="Layer_1" xmlns="http://www.w3.org/2000/svg" xmlns:xlink="http://www.w3.org/1999/xlink" x="0px" y="0px"
	 width="32px" height="48px" viewBox="0 0 32 48" enable-background="new 0 0 32 48" xml:space="preserve">
<g>
	<polyline fill="none" stroke="#A7A9AC" stroke-width="1.557" stroke-linecap="round" stroke-linejoin="round" points="
		17.209,32.041 14.471,46.128 9.442,42.511 3.413,44.052 6.238,29.479 	"/>
	<polyline fill="none" stroke="#A7A9AC" stroke-width="1.557" stroke-linecap="round" stroke-linejoin="round" points="
		16.477,36.592 20.156,46.863 24.413,42.392 30.629,42.803 25.27,29.397 	"/>
	
		<ellipse fill="none" stroke="#A7A9AC" stroke-width="1.557" stroke-linecap="round" stroke-linejoin="round" cx="15.977" cy="15.656" rx="9.783" ry="9.617"/>
	<g>
		<path fill="none" stroke="#A7A9AC" stroke-width="1.557" stroke-linecap="round" stroke-linejoin="round" d="M29.106,8.911
			c0.579,1.09-0.566,2.785-0.305,3.93c0.27,1.186,2.03,2.242,1.979,3.428c-0.053,1.203-1.904,2.108-2.269,3.25
			c-0.363,1.141,0.631,2.926-0.025,3.942c-0.646,1.003-2.706,0.882-3.615,1.705c-0.88,0.793-0.923,2.827-2.032,3.396
			s-2.832-0.558-3.997-0.301c-1.206,0.265-2.281,1.997-3.487,1.944c-1.225-0.052-2.145-1.871-3.307-2.229
			c-1.162-0.357-2.975,0.618-4.011-0.027c-1.019-0.635-0.896-2.657-1.732-3.552c-0.808-0.865-2.875-0.908-3.456-1.998
			c-0.58-1.091,0.566-2.786,0.306-3.93c-0.27-1.186-2.03-2.242-1.979-3.428c0.054-1.204,1.904-2.11,2.268-3.252
			C3.809,10.649,2.814,8.867,3.47,7.85c0.646-1.003,2.706-0.882,3.615-1.704c0.88-0.794,0.923-2.828,2.032-3.398
			c1.109-0.569,2.832,0.557,3.998,0.301c1.205-0.266,2.28-1.997,3.486-1.947c1.225,0.054,2.146,1.874,3.309,2.231
			c1.161,0.358,2.975-0.618,4.01,0.026c1.019,0.635,0.896,2.659,1.732,3.553C26.459,7.778,28.526,7.821,29.106,8.911z"/>
	</g>
</g>
</svg>
