<?xml version="1.0" encoding="utf-8"?>
<!-- Generator: Adobe Illustrator 16.0.0, SVG Export Plug-In . SVG Version: 6.00 Build 0)  -->
<!DOCTYPE svg PUBLIC "-//W3C//DTD SVG 1.1//EN" "http://www.w3.org/Graphics/SVG/1.1/DTD/svg11.dtd">
<svg version="1.1" id="Layer_1" xmlns="http://www.w3.org/2000/svg" xmlns:xlink="http://www.w3.org/1999/xlink" x="0px" y="0px"
	 width="60px" height="42px" viewBox="0 0 60 42" enable-background="new 0 0 60 42" xml:space="preserve">
<g>
	<path fill="#FFFFFF" stroke="#A7A9AC" stroke-width="2" d="M10.66,27.193c0.224,0.16,0.452,0.309,0.69,0.449
		c0.229,0.152,0.469,0.291,0.713,0.425c0.405,0.22,0.596,1.224,0.557,2.274c-0.039,1.05,1.007,2.276,2.271,2.59
		c1.261,0.312,2.919-0.242,3.551-1.147c0.632-0.901,1.426-1.664,1.907-1.664c0.291,0,0.579-0.008,0.868-0.03
		c0.291-0.01,0.58-0.032,0.866-0.063c0.475-0.054,1.379,0.612,2.145,1.437c0.764,0.825,2.495,1.189,3.7,0.74
		c1.205-0.447,2.057-1.784,1.854-2.82c-0.204-1.035-0.165-2.048,0.196-2.312c0.219-0.161,0.432-0.328,0.643-0.496
		c0.22-0.161,0.418-0.341,0.611-0.523c0.321-0.304,1.531-0.284,2.741-0.067c1.21,0.218,2.8-0.456,3.387-1.458
		c0.59-1.008,0.229-2.5-0.713-3.178c-0.942-0.68-1.671-1.477-1.599-1.879c0.048-0.24,0.082-0.485,0.119-0.728
		c0.046-0.243,0.063-0.489,0.073-0.736c0.014-0.407,0.957-1.052,2.048-1.549c1.09-0.496,1.801-1.88,1.493-2.971
		c-0.309-1.091-1.713-2.039-2.949-2.045c-1.234-0.006-2.396-0.218-2.646-0.563c-0.15-0.209-0.308-0.416-0.456-0.625
		c-0.164-0.202-0.332-0.402-0.507-0.598c-0.286-0.325-0.063-1.33,0.402-2.301c0.468-0.972-0.032-2.433-1.1-3.098
		c-1.068-0.663-2.858-0.631-3.807,0.039c-0.95,0.671-2.007,1.155-2.46,1.021c-0.271-0.079-0.546-0.156-0.819-0.236
		c-0.279-0.056-0.558-0.118-0.839-0.174c-0.465-0.094-1.052-0.986-1.427-1.985c-0.377-0.999-1.865-1.844-3.187-1.771
		c-1.32,0.073-2.667,1.076-2.887,2.109c-0.221,1.032-0.667,1.981-1.114,2.124c-0.271,0.085-0.54,0.177-0.806,0.272
		c-0.258,0.111-0.52,0.213-0.778,0.319c-0.433,0.179-1.546-0.176-2.59-0.734C9.766,4.678,7.981,4.837,7.03,5.617
		C6.083,6.396,5.807,7.887,6.412,8.805c0.607,0.917,0.995,1.889,0.75,2.239c-0.148,0.213-0.289,0.43-0.403,0.655
		c-0.124,0.222-0.248,0.444-0.362,0.669c-0.189,0.373-1.312,0.71-2.534,0.852c-1.223,0.144-2.47,1.238-2.61,2.354
		c-0.138,1.116,0.778,2.41,1.935,2.779c1.16,0.371,2.192,0.906,2.269,1.309c0.05,0.243,0.104,0.484,0.186,0.72
		c0.074,0.238,0.144,0.477,0.227,0.712c0.139,0.391-0.469,1.262-1.296,2.042c-0.827,0.778-0.951,2.296-0.219,3.227
		c0.733,0.93,2.421,1.414,3.59,1.065C9.11,27.08,10.292,26.934,10.66,27.193z M13.943,24.637c-2-1.238-3.474-3.092-4.043-5.143
		c-0.579-2.041-0.33-4.267,0.794-6.148c1.093-1.888,2.978-3.439,5.254-4.282c2.269-0.849,4.88-0.989,7.264-0.406
		c2.376,0.601,4.491,1.908,5.868,3.662c1.387,1.749,1.995,3.919,1.727,6.01c-0.242,2.102-1.439,4.092-3.218,5.549
		c-1.776,1.469-4.19,2.358-6.661,2.487C18.458,26.518,15.931,25.892,13.943,24.637z"/>
	<path fill="#FFFFFF" stroke="#A7A9AC" stroke-width="2" d="M44.975,22.287c-0.635-0.987-2.33-1.522-3.5-1.082
		c-1.172,0.441-1.849,1.863-1.42,2.923c0.429,1.062,0.726,2.046,0.478,2.286c-0.15,0.146-0.295,0.296-0.428,0.451
		c-0.133,0.158-0.263,0.317-0.38,0.482c-0.197,0.271-1.382,0.328-2.705,0.302c-1.322-0.021-2.716,0.955-2.854,2.035
		c-0.138,1.081,0.976,2.289,2.274,2.509c1.297,0.218,2.439,0.487,2.562,0.791c0.076,0.183,0.161,0.362,0.251,0.541
		c0.089,0.176,0.191,0.348,0.303,0.518c0.183,0.279-0.356,1.186-1.046,2.145c-0.685,0.959-0.384,2.471,0.649,3.115
		c1.035,0.644,2.822,0.432,3.691-0.416c0.867-0.848,1.716-1.558,2.084-1.497c0.226,0.038,0.45,0.064,0.676,0.096
		c0.228,0.011,0.455,0.025,0.682,0.03c0.376,0.009,1.024,0.854,1.659,1.839c0.634,0.988,2.328,1.522,3.502,1.083
		c1.174-0.441,1.847-1.864,1.419-2.925c-0.43-1.062-0.729-2.045-0.479-2.286c0.149-0.144,0.294-0.294,0.426-0.45
		c0.133-0.157,0.262-0.317,0.381-0.48c0.197-0.273,1.384-0.329,2.705-0.305c1.32,0.024,2.716-0.953,2.854-2.034
		c0.138-1.082-0.977-2.291-2.274-2.509c-1.297-0.218-2.438-0.489-2.562-0.79c-0.074-0.184-0.161-0.361-0.25-0.539
		c-0.09-0.179-0.192-0.351-0.302-0.521c-0.184-0.281,0.355-1.186,1.043-2.146c0.687-0.957,0.388-2.47-0.646-3.113
		c-1.034-0.643-2.826-0.431-3.692,0.416c-0.868,0.846-1.718,1.556-2.086,1.494c-0.225-0.035-0.449-0.063-0.675-0.092
		c-0.226-0.015-0.453-0.025-0.68-0.032C46.257,24.117,45.609,23.272,44.975,22.287z M46.841,27.89
		c1.201,0.122,2.314,0.777,2.792,1.749c0.5,0.922,0.35,2.105-0.374,2.916c-0.712,0.862-1.963,1.298-3.171,1.197
		c-1.203-0.124-2.317-0.778-2.793-1.746c-0.501-0.924-0.35-2.11,0.372-2.92C44.379,28.228,45.633,27.79,46.841,27.89z"/>
</g>
</svg>
